<svg width="36" height="24" viewBox="0 0 36 24" fill="none" xmlns="http://www.w3.org/2000/svg">
<path d="M30.848 16.208C29.8987 16.208 29.104 15.9573 28.464 15.456C27.8347 14.944 27.3653 14.256 27.056 13.392C26.7573 12.528 26.608 11.552 26.608 10.464C26.608 9.408 26.7573 8.464 27.056 7.632C27.3653 6.8 27.8347 6.144 28.464 5.664C29.104 5.17333 29.8987 4.928 30.848 4.928C31.7973 4.928 32.5867 5.17333 33.216 5.664C33.856 6.144 34.3253 6.8 34.624 7.632C34.9333 8.464 35.088 9.408 35.088 10.464C35.088 11.552 34.9333 12.528 34.624 13.392C34.3253 14.256 33.856 14.944 33.216 15.456C32.5867 15.9573 31.7973 16.208 30.848 16.208ZM30.848 14.608C31.5627 14.608 32.0853 14.2187 32.416 13.44C32.7467 12.6613 32.912 11.6693 32.912 10.464C32.912 9.32267 32.7467 8.384 32.416 7.648C32.0853 6.90133 31.5627 6.528 30.848 6.528C30.1333 6.528 29.6107 6.90133 29.28 7.648C28.9493 8.384 28.784 9.32267 28.784 10.464C28.784 11.6693 28.9493 12.6613 29.28 13.44C29.6107 14.2187 30.1333 14.608 30.848 14.608Z" fill="#9093A6"/>
<g clip-path="url(#clip0_4_72)">
<path d="M15.55 13C16.3 13 16.96 12.59 17.3 11.97L20.88 5.48C21.25 4.82 20.77 4 20.01 4H5.21L4.27 2H1V4H3L6.6 11.59L5.25 14.03C4.52 15.37 5.48 17 7 17H19V15H7L8.1 13H15.55ZM6.16 6H18.31L15.55 11H8.53L6.16 6ZM7 18C5.9 18 5.01 18.9 5.01 20C5.01 21.1 5.9 22 7 22C8.1 22 9 21.1 9 20C9 18.9 8.1 18 7 18ZM17 18C15.9 18 15.01 18.9 15.01 20C15.01 21.1 15.9 22 17 22C18.1 22 19 21.1 19 20C19 18.9 18.1 18 17 18Z" fill="#9093A6"/>
</g>
<defs>
<clipPath id="clip0_4_72">
<rect width="24" height="24" fill="white"/>
</clipPath>
</defs>
</svg>
