<svg width="77" height="24" viewBox="0 0 77 24" fill="none" xmlns="http://www.w3.org/2000/svg">
<path d="M34.64 14.448V16H27.616V5.12H29.792V14.448H34.64ZM40.6051 16.24C39.6451 16.24 38.8291 16.0373 38.1571 15.632C37.4851 15.216 36.9838 14.6613 36.6531 13.968C36.3225 13.264 36.1571 12.4747 36.1571 11.6C36.1571 10.704 36.3225 9.90933 36.6531 9.216C36.9838 8.512 37.4798 7.95733 38.1411 7.552C38.8131 7.14667 39.6345 6.944 40.6051 6.944C41.5651 6.944 42.3758 7.15733 43.0371 7.584C43.7091 8 44.2105 8.56 44.5411 9.264C44.8825 9.968 45.0531 10.736 45.0531 11.568C45.0531 12.4107 44.8825 13.1893 44.5411 13.904C44.2105 14.608 43.7091 15.1733 43.0371 15.6C42.3758 16.0267 41.5651 16.24 40.6051 16.24ZM40.5891 14.688C41.3678 14.688 41.9438 14.4213 42.3171 13.888C42.7011 13.344 42.8931 12.576 42.8931 11.584C42.8931 10.6027 42.7011 9.84533 42.3171 9.312C41.9331 8.768 41.3571 8.496 40.5891 8.496C39.8211 8.496 39.2451 8.768 38.8611 9.312C38.4771 9.84533 38.2851 10.6027 38.2851 11.584C38.2851 12.576 38.4718 13.344 38.8451 13.888C39.2291 14.4213 39.8105 14.688 40.5891 14.688ZM55.6424 8.72L53.9464 8.528C54.1704 8.92267 54.2824 9.36533 54.2824 9.856C54.2824 10.3893 54.149 10.88 53.8824 11.328C53.6264 11.776 53.2317 12.1387 52.6984 12.416C52.1757 12.6827 51.541 12.816 50.7944 12.816C50.4424 12.816 50.1224 12.784 49.8344 12.72C49.429 13.0933 49.2264 13.4133 49.2264 13.68C49.2264 13.8827 49.2957 14.032 49.4344 14.128C49.5837 14.2133 49.8184 14.256 50.1384 14.256H52.6984C53.573 14.256 54.2557 14.4533 54.7464 14.848C55.2477 15.232 55.4984 15.7547 55.4984 16.416C55.4984 17.0667 55.2744 17.6587 54.8264 18.192C54.3784 18.736 53.765 19.1627 52.9864 19.472C52.2077 19.792 51.3437 19.952 50.3944 19.952C49.1037 19.952 48.165 19.7227 47.5784 19.264C47.0024 18.8053 46.7144 18.2507 46.7144 17.6C46.7144 17.1947 46.8264 16.8267 47.0504 16.496C47.2744 16.1653 47.6104 15.8347 48.0584 15.504C47.749 15.3547 47.5197 15.1627 47.3704 14.928C47.2317 14.6827 47.1624 14.4267 47.1624 14.16C47.1624 13.84 47.2744 13.5253 47.4984 13.216C47.7224 12.9067 48.0744 12.576 48.5544 12.224C48.149 11.9573 47.8397 11.6213 47.6264 11.216C47.413 10.8 47.3064 10.3573 47.3064 9.888C47.3064 9.35467 47.4344 8.86933 47.6904 8.432C47.957 7.984 48.3517 7.62667 48.8744 7.36C49.397 7.08267 50.037 6.944 50.7944 6.944C51.381 6.944 51.8877 7.024 52.3144 7.184H55.6424V8.72ZM50.7944 11.376C51.2317 11.376 51.5784 11.2427 51.8344 10.976C52.101 10.6987 52.2344 10.3307 52.2344 9.872C52.2344 9.41333 52.1064 9.05067 51.8504 8.784C51.5944 8.51733 51.2424 8.384 50.7944 8.384C50.3464 8.384 49.989 8.51733 49.7224 8.784C49.4664 9.05067 49.3384 9.41333 49.3384 9.872C49.3384 10.3307 49.4717 10.6987 49.7384 10.976C50.005 11.2427 50.357 11.376 50.7944 11.376ZM53.4984 16.72C53.4984 16.1333 53.0824 15.84 52.2504 15.84H49.8344H49.6104C49.013 16.384 48.7144 16.9227 48.7144 17.456C48.7144 18.0853 49.2744 18.4 50.3944 18.4C50.9704 18.4 51.493 18.3147 51.9624 18.144C52.4424 17.984 52.8157 17.7707 53.0824 17.504C53.3597 17.248 53.4984 16.9867 53.4984 16.72ZM63.23 5.248C62.8887 5.248 62.5953 5.12533 62.35 4.88C62.1047 4.63467 61.982 4.34133 61.982 4C61.982 3.65867 62.1047 3.36533 62.35 3.12C62.5953 2.87467 62.8887 2.752 63.23 2.752C63.582 2.752 63.8807 2.87467 64.126 3.12C64.3713 3.36533 64.494 3.65867 64.494 4C64.494 4.34133 64.3713 4.63467 64.126 4.88C63.8807 5.12533 63.582 5.248 63.23 5.248ZM62.19 7.184H64.302V16H62.19V7.184ZM72.4744 6.944C73.541 6.944 74.2717 7.22667 74.6664 7.792C75.0717 8.34667 75.2744 9.152 75.2744 10.208V16H73.1784V10.448C73.1784 9.744 73.077 9.248 72.8744 8.96C72.6824 8.672 72.3357 8.528 71.8344 8.528C71.1624 8.528 70.4637 8.8 69.7384 9.344V16H67.6264V7.184H69.2104L69.4664 8C70.4904 7.296 71.493 6.944 72.4744 6.944Z" fill="#9093A6"/>
<path d="M12 6C13.1 6 14 6.9 14 8C14 9.1 13.1 10 12 10C10.9 10 10 9.1 10 8C10 6.9 10.9 6 12 6ZM12 16C14.7 16 17.8 17.29 18 18H12H6C6.23 17.28 9.31 16 12 16ZM12 4C9.79 4 8 5.79 8 8C8 10.21 9.79 12 12 12C14.21 12 16 10.21 16 8C16 5.79 14.21 4 12 4ZM12 14C9.33 14 4 15.34 4 18V20H20V18C20 15.34 14.67 14 12 14Z" fill="#9093A6"/>
</svg>
