<svg width="46" height="48" viewBox="0 0 46 48" fill="none" xmlns="http://www.w3.org/2000/svg">
<path d="M45.8486 20.2C45.8486 20.9 45.8486 21.5 45.8486 22.2C45.8486 22.3 45.7486 22.3 45.7486 22.4C45.5486 24.4 44.8486 26.3 43.7486 28C42.9486 29.3 41.8486 30.3 40.8486 31.4C35.8486 36.4 30.7486 41.3 25.7486 46.3C25.3486 46.7 24.8486 47.1 24.3486 47.5C24.1486 47.5 24.0486 47.5 23.8486 47.5C23.6486 47.3 23.3486 47.2 23.1486 47C17.4486 41.4 11.7486 35.8 6.14858 30.2C4.44858 28.5 3.24858 26.4 2.74858 24.1C2.54858 23.4 2.54858 22.8 2.44858 22.1C2.44858 21.4 2.44858 20.8 2.44858 20.1C2.44858 19.8 2.54858 19.5 2.54858 19.2C3.44858 13.3 8.64858 8.59998 14.5486 8.29998C17.1486 8.19998 19.5486 8.69998 21.8486 9.89998C21.9919 10.0433 24.4798 9.99998 26.1486 9.99998C26.2486 9.99998 26.3486 9.89998 26.4486 9.79998C29.2486 8.29998 32.3486 7.69998 35.4486 8.39998C40.6486 9.59998 44.1486 12.7 45.5486 18C45.6486 18.7 45.7486 19.5 45.8486 20.2Z" fill="#FFE145"/>
<path fill-rule="evenodd" clip-rule="evenodd" d="M21.9486 21.9L21.0486 26.1H23.9486L23.1486 22L21.9486 21.9Z" fill="white"/>
<path fill-rule="evenodd" clip-rule="evenodd" d="M23.6486 9.7C23.7486 9.6 23.8486 9.6 23.9486 9.5C25.7486 8.5 27.6486 7.9 29.7486 7.8C33.0486 7.6 36.0486 8.6 38.6486 10.7C41.3486 12.9 42.9486 15.8 43.4486 19.2C43.9486 23.1 42.8486 26.5 40.3486 29.5C39.1486 30.9 37.7486 32.2 36.3486 33.6C31.7486 38.2 27.2486 42.7 22.6486 47.3C21.9486 48 21.5486 48 20.8486 47.3C15.1486 41.6 9.54859 36 3.84859 30.3C1.54859 28 0.248592 25.2 0.0485916 21.9C-0.251408 18.4 0.848592 15.3 3.04859 12.6C5.34859 9.7 8.44859 8.2 12.1486 7.9C14.8486 7.6 17.3486 8.3 19.6486 9.6C19.7486 9.6 19.8486 9.7 19.9486 9.8C20.1536 8.57 20.3486 7.24205 20.3486 6C20.3486 5.8 20.2486 5.5 20.1486 5.3C19.7486 4.8 19.6486 4.4 19.9486 3.8C20.2486 3.2 20.6486 2.6 21.0486 2C21.1727 1.81389 21.2486 1.9 21.2486 1.3C21.2486 1.1 21.2486 0.9 21.2486 0.6C21.2486 0.3 21.5486 0 21.8486 0C22.1486 0 22.4486 0.2 22.4486 0.6C22.4486 1.1 22.4486 1.6 22.4486 1.1C22.4486 1.3 22.5486 1.8 22.6486 2C23.0933 2.74117 23.371 3.28366 23.8486 4C24.0486 4.4 24.0486 4.7 23.7486 5C23.3486 5.4 23.2486 5.8 23.3486 6.3C23.4056 7.43971 23.6486 8.5568 23.6486 9.7ZM14.3486 34.8C13.6486 34.8 12.9486 34.8 12.2486 34.8C11.9486 34.8 11.7486 34.8 11.5486 34.5C11.3486 34.2 11.5486 34 11.6486 33.7C11.9486 33.3 12.1486 33 12.4486 32.6C13.6486 30.7 14.8486 28.8 16.0486 26.9C16.2486 26.6 16.2486 26.5 15.8486 26.5C15.4486 26.5 15.2486 26.2 15.2486 25.9C15.2486 25.6 15.4486 25.3 15.8486 25.3C16.1486 25.3 16.3486 25.3 16.6486 25.3C16.7486 25.3 16.9486 25.2 17.0486 25.1C17.4486 24.2 17.9486 23.3 18.2486 22.4C18.5486 21.7 18.7486 21 18.9486 20.3C19.0486 19.9 18.9486 19.8 18.6486 19.8C18.4486 19.8 18.3486 19.8 18.1486 19.8C17.7486 19.8 17.5486 19.5 17.5486 19.2C17.5486 18.8 17.7486 18.6 18.2486 18.6C18.4486 18.6 18.6486 18.6 18.8486 18.6C19.4486 18.6 19.4486 18.6 19.5486 18C19.7486 16.3 19.9486 14.6 20.0486 12.9C20.1486 11.6 20.1486 11.6 18.9486 10.9C16.7486 9.7 14.3486 9.3 11.8486 9.6C8.14859 10.1 5.34859 12 3.44859 15.2C2.14859 17.4 1.84859 19.8 2.14859 22.4C2.44859 24.9 3.54859 27.1 5.34859 28.9C7.04859 30.6 8.84859 32.4 10.5486 34.1C14.2486 37.8 17.9486 41.5 21.5486 45.1C21.8486 45.4 22.1486 45.4 22.4486 45.1C27.6486 40 32.7486 34.8 37.9486 29.7C39.0486 28.6 40.0486 27.5 40.7486 26.1C41.9486 23.8 42.1486 21.3 41.8486 18.8C41.5486 16.6 40.4486 14.6 38.9486 13C37.8486 11.9 36.6486 11 35.2486 10.4C33.0486 9.5 30.8486 9.3 28.5486 9.7C26.9486 10 25.5486 10.6 24.2486 11.5C24.0486 11.6 23.9486 11.8 24.0486 12C24.2486 13.9 24.4486 15.7 24.5486 17.6C24.5486 17.8 24.5486 18.1 24.6486 18.3C24.6486 18.4 24.8486 18.5 24.9486 18.5C25.2486 18.5 25.5486 18.5 25.7486 18.5C26.1486 18.5 26.4486 18.7 26.4486 19.1C26.4486 19.4 26.1486 19.7 25.8486 19.7C25.6486 19.7 25.4486 19.7 25.2486 19.7C24.9486 19.7 24.8486 19.8 24.9486 20.1C25.1486 20.7 25.2486 21.2 25.4486 21.8C25.8486 22.8 26.2486 23.8 26.6486 24.7C26.8486 25.1 27.0486 25.3 27.4486 25.2C27.5486 25.2 27.6486 25.2 27.8486 25.2C28.2486 25.2 28.5486 25.4 28.5486 25.8C28.5486 26.2 28.3486 26.4 27.8486 26.5C27.5486 26.5 27.5486 26.6 27.6486 26.8C28.1486 27.7 28.6486 28.6 29.2486 29.5C30.1486 30.9 31.1486 32.3 32.0486 33.7C32.2486 33.9 32.3486 34.2 32.1486 34.4C31.9486 34.7 31.7486 34.7 31.5486 34.7C30.7486 34.7 29.9486 34.7 29.1486 34.7C28.4486 34.7 27.8486 34.7 27.1486 34.7C26.8486 34.7 26.6486 34.5 26.5486 34.2C26.3486 33.6 26.1486 33 25.9486 32.5C24.8486 30.4 23.3486 29.7 21.1486 30C20.6486 30.1 20.1486 30.3 19.7486 30.5C18.4486 31.3 17.7486 32.7 17.3486 34.1C17.2486 34.6 17.0486 34.7 16.6486 34.7C15.7486 34.8 15.0486 34.8 14.3486 34.8ZM21.8486 19.8C21.4486 19.8 20.9486 19.8 20.5486 19.8C20.4486 19.8 20.2486 19.9 20.2486 20C20.1486 20.2 20.1486 20.5 20.0486 20.7C19.7486 22 19.2486 23.3 18.6486 24.5C18.0486 25.7 17.4486 26.9 16.7486 28.1C15.7486 29.8 14.6486 31.4 13.5486 33.1C13.4486 33.2 13.4486 33.3 13.4486 33.4C13.5486 33.4 13.6486 33.5 13.7486 33.5C14.3486 33.5 15.0486 33.5 15.6486 33.5C15.8486 33.5 16.0486 33.4 16.0486 33.2C16.2486 32.8 16.4486 32.3 16.6486 31.9C17.1486 30.9 17.7486 30.1 18.6486 29.5C20.1486 28.6 21.7486 28.4 23.3486 28.9C24.7486 29.3 25.8486 30.2 26.5486 31.5C26.8486 32 27.0486 32.6 27.3486 33.1C27.4486 33.3 27.5486 33.4 27.7486 33.4C28.4486 33.4 29.1486 33.4 29.8486 33.4C29.9486 33.4 30.1486 33.4 30.1486 33.3C30.1486 33.2 30.1486 33.1 30.0486 33C29.4486 32.1 28.7486 31.1 28.1486 30.2C26.7486 28 25.5486 25.8 24.5486 23.5C24.0486 22.3 23.7486 21.1 23.3486 19.9C23.2486 19.7 23.2486 19.6 23.0486 19.6C22.6486 19.8 22.2486 19.8 21.8486 19.8ZM21.0486 12.7C20.9486 13.5 20.8486 14.2 20.8486 14.9C20.7486 16 20.6486 17.1 20.4486 18.1C20.4486 18.4 20.4486 18.5 20.7486 18.5C21.4486 18.5 22.1486 18.5 22.7486 18.5C23.0486 18.5 23.1486 18.4 23.0486 18.1C22.9486 17.1 22.7486 16.1 22.6486 15C22.5486 14.2 22.4486 13.5 22.4486 12.6C22.0486 13.2 21.5486 13.2 21.0486 12.7ZM21.8486 2.7L20.8277 4.6C20.8277 4.6 21.5561 5.22251 21.6486 5.5C21.6486 5.5 21.4466 8.83005 21.3486 10.3C21.3486 10.6 21.5486 10.8 21.7486 10.9C21.9486 11 22.1486 10.9 22.3486 10.8C22.5486 10.6 22.5486 10.4 22.5486 10.2C22.4486 7.7 22.0486 5.5 22.0486 5.5L23.0486 4.5L21.8486 2.7Z" fill="#B79C10"/>
<path fill-rule="evenodd" clip-rule="evenodd" d="M10.9486 12.1C11.4486 12.1 11.8486 12.5 11.8486 12.9C11.9486 13.3 11.6486 13.6 11.2486 13.8C10.6486 14 10.0486 14.2 9.44858 14.6C7.24858 16 5.94858 18 5.94858 20.6C5.94858 21.3 6.04858 22.1 6.14858 22.8C6.14858 23.2 5.84858 23.7 5.44858 23.8C5.04858 23.9 4.54858 23.7 4.44858 23.2C4.14858 22.3 4.04858 21.3 4.04858 20.4C4.14858 19 4.54858 17.7 5.14858 16.5C6.24858 14.6 7.74858 13.2 9.74858 12.4C10.2486 12.3 10.6486 12.2 10.9486 12.1Z" fill="#B79C10"/>
<path fill-rule="evenodd" clip-rule="evenodd" d="M21.8486 26.8C21.3486 26.8 20.7486 26.8 20.2486 26.8C19.7486 26.8 19.4486 26.5 19.5486 26C19.7486 25.2 19.9486 24.4 20.1486 23.7C20.2486 23.1 20.3486 22.5 20.4486 21.8C20.5486 21.4 20.6486 21.1 21.1486 21.1C21.6486 21.1 22.1486 21.1 22.5486 21.1C22.9486 21.1 23.1486 21.3 23.2486 21.7C23.5486 23.1 23.8486 24.5 24.1486 26C24.2486 26.6 24.0486 26.9 23.4486 26.9C22.8486 26.8 22.3486 26.8 21.8486 26.8ZM21.7486 25.5C21.9486 25.5 22.2486 25.5 22.4486 25.5C22.6486 25.5 22.6486 25.4 22.6486 25.2C22.4486 24.3 22.2486 23.5 22.0486 22.6C22.0486 22.4 22.0486 22.2 21.7486 22.2C21.4486 22.2 21.4486 22.4 21.4486 22.6C21.3486 23.3 21.2486 23.9 21.0486 24.6C20.9486 25.5 20.8486 25.5 21.7486 25.5Z" fill="#B79C10"/>
<path fill-rule="evenodd" clip-rule="evenodd" d="M32.3486 11.2C31.8486 11.2 31.4486 11.6 31.4486 12C31.3486 12.4 31.6486 12.7 32.0486 12.9C32.6486 13.1 33.2486 13.3 33.8486 13.7C36.0486 15.1 37.3486 17.1 37.3486 19.7C37.3486 20.4 37.2486 21.2 37.1486 21.9C37.1486 22.3 37.4486 22.8 37.8486 22.9C38.2486 23 38.7486 22.8 38.8486 22.3C39.1486 21.4 39.2486 20.4 39.2486 19.5C39.1486 18.1 38.7486 16.8 38.1486 15.6C37.0486 13.7 35.5486 12.3 33.5486 11.5C33.0486 11.4 32.6486 11.3 32.3486 11.2Z" fill="white"/>
</svg>
